<?xml version="1.0" encoding="UTF-8"?>
<svg id="Ebene_1" data-name="Ebene 1" xmlns="http://www.w3.org/2000/svg" viewBox="0 0 1101.2 199.38">
  <defs>
    <style>
      .cls-1 {
        fill: #000;
      }
    </style>
  </defs>
  <path class="cls-1" d="m48.95,135.69l.3-1.9-.9,1.3.2-1.7-.9,1.1.2-1.5-.8.9.2-1.3-.8.7.1-1-.8.8.1-1.1-.8.7.2-1-.9.7.2-1-.9.7.2-1-.9.6.2-.9-.9.6.3-1-.9.6.2-.9-1,.5.3-.9-.9.5.3-.9-1,.5.3-.9-1,.4.4-.8-1,.4.4-.9-1.1.4.5-.8-1.1.4.4-.9-1.1.4.6-.9-1.2.4.6-.9-1.2.4.6-.9-1.2.4.6-.9-1.2.3.7-.9-1.3.4.8-.9-1.3.3.8-.8-1.3.3,1-1.1-1.6.3,1.1-1-1.7.1,1.2-.8h-1.6l1.2-.7-1.5-.1,1.2-.7-1.4-.1,1.2-.6-1.5-.1,1.2-.6-1.4-.2,1.3-.5-1.4-.2,1.2-.5-1.4-.3,1.2-.4-1.4-.3,1.2-.4-1.3-.3,1.2-.5-1.4-.2,1.2-.5-1.4-.2,1.2-.5-1.4-.2,1.3-.5-1.5-.3,1.3-.4-1.5-.3,1.4-.4-1.5-.3,1.3-.4-1.5-.3,1.4-.4-1.5-.3,1.4-.4-1.5-.3,1.4-.4-1.5-.3,1.4-.4-1.5-.4,1.4-.4-1.4-.3,1.4-.4-1.5-.3,1.4-.4-1.4-.3,1.4-.4-1.4-.4,1.4-.3-1.3-.4,1.3-.4-1.3-.3,1.3-.4-1.3-.4,1.3-.3-1.2-.4,1.2-.3-1.1-.4,1.1-.3-1.1-.5,1.1-.3-1-.4,1-.3-1-.4,1-.3-.9-.5,1-.3-.9-.5,1-.2-.9-.7.9-.1-.8-.6.9-.2-.7-.5.8-.2-.7-.6.8-.1-.7-.6.7-.1-.7-.6.8-.1-.7-.6.8-.1-.8-.6.8-.1-.7-.7.8-.1-.8-.6.8-.1-.8-.6.9-.1-.9-.7h.9l-1-.7h1.1l-1.1-.8h1.1l-1.1-.7h1.2l-1.2-.7h1.2l-1.1-.8,1.2.1-1.2-.8h1.3l-1.2-.8,1.3.1-1.2-.8,1.4.1-1.3-.9,1.4.2-1.3-.9,1.5.2-1.3-1,1.5.2-1.4-.9,1.5.2-1.4-1,1.6.3-1.4-1.1,1.7.3-1.5-1.2,1.8.5-1.5-1.3,1.9.6-1.6-1.6,2.1.9-1.5-1.9,2.2,1.2-1.4-2.4,2,1.6-.9-2.6,1.6,1.7-.7-2.4,1.3,1.7-.5-2.1,1.1,1.7-.4-2.2,1.1,1.8-.4-2.1,1.1,1.7-.4-2,1,1.7-.3-2,1,1.7-.3-2,1,1.7-.2-1.9.9,1.7-.2-2,.9,1.7-.2-1.9.9,1.7-.2-1.9.9,1.7-.2-1.8.9,1.6-.1-1.8.8,1.5-.1-1.7.8,1.5-.1-1.6.8,1.5-.1-1.7.8,1.5-.1-1.6.8,1.4v-1.6l.7,1.4v-1.5l.7,1.3v-1.4l.7,1.2v-1.4l.7,1.3v-1.4l.6,1.2.1-1.4.6,1.2.1-1.4.6,1.2.1-1.3.6,1.1.1-1.3.6,1.1.1-1.3.6,1.1.1-1.4.6,1.1.1-1.3.6,1.1.1-1.3.5,1.1.2-1.3.5,1.1.2-1.4.5,1.2.2-1.4.5,1.2.2-1.4.5,1.2.2-1.4.5,1.2.2-1.4.5,1.2.2-1.4.5,1.3.2-1.4.5,1.2.3-1.4.5,1.3.2-1.4.5,1.2.3-1.3.4,1.2.3-1.3.5,1.3.4-1.4.4,1.4.6-1.5.2,1.5.7-1.4.1,1.3.7-1.2.1,1.3.7-1.1.1,1.2.6-1.1.1,1.2.7-1,.1,1.1.6-1,.1,1.1.7-.9v1.1l.7-.9v1.1l.7-.9.1,1,.7-.8v1l.7-.8v1l.7-.7v1l.9-.8-.1,1,.8-.7v.9l.7-.6v.9l.7-.6v.8l.8-.5-.1.8.8-.5v.8l.7-.5v.8l.7-.5v.8l.8-.5-.1.8.8-.4-.1.7.8-.4-.1.7.8-.3-.1.7.8-.3-.2.7.9-.3-.1.7.7-.3-.1.7.8-.3-.2.7.8-.2-.2.6.8-.2-.2.7.9-.2-.3.6.9-.1-.3.6.8-.1-.2.6.8-.1-.3.6h.8l-.2.6.8-.1-.3.6h.8l-.4.6h.8l-.3.6.8.1-.3.5.8.1-.4.6.8.1-.4.5.8.3-.4.4.7.3-.4.5.7.3-.5.4.8.4-.6.3.7.5-.5.3.6.5-.7.3.8,1h-1l.3,1.3-.9-.1.2,1.3-.9-.5-.7,1.3-.5-.5-.4.9-.4-.6-.5,1-.3-.7-.5.9-.3-.8-.6,1-.2-.8-.6.9-.2-.8-.6,1-.2-.9-.6,1-.2-.9-.5,1-.2-.9-.6,1.1-.2-1.1-.5,1.2-.2-1.1-.5,1.3-.2-1.2-.6,1.3-.2-1.2-.5,1.3-.2-1.2-.5,1.3-.2-1.3-.5,1.4-.2-1.3-.6,1.4-.2-1.4-.5,1.5-.2-1.5-.6,1.6-.2-1.6-.5,1.6-.2-1.6-.7,1.6-.1-1.7-.7,1.7-.1-1.7-.8,1.6v-1.8l-.9,1.7.1-1.9-1,1.7.2-1.9-1.2,1.6.3-1.8-1.2,1.5.4-1.8-1.2,1.4.5-1.6-1.3,1.2.5-1.6-1.2,1.3.6-1.6-1.3,1.2.6-1.5-1.2,1.1.6-1.4-1.1,1,.5-1.3-1.1,1,.5-1.2-1,.9.4-1.2-.8,1,.3-1.2-.8,1,.2-1.3-.8,1,.1-1-.5.9v-1.1l-.5,1v-1.2l-.5,1.1-.1-1.1-.4,1.1-.2-1.2-.4,1.1-.3-1.1-.2,1.1-.4-1-.1,1.1-.5-1-.1,1.1-.5-1v1.1l-.6-.9.1,1-.6-.8.1,1-.6-.7.1,1-.6-.7.2.9-.7-.5.3.8-.7-.4.4.8-.8-.4.5.8-.8-.3.5.7-.9-.3.6.7-.8-.1.6.7-.9-.2.7.7-.9-.1.7.7-.9-.1.7.7h-1l.9.7h-1l.9.6-1,.1.9.6-1,.1.9.6-.9.2.9.5-1,.2,1,.6-1,.1,1,.6-1,.2,1,.5-1,.2,1,.6-1,.2,1,.5-1,.3,1.1.5-1,.2,1,.5-1,.2,1,.5-1,.2,1.1.5-1,.2,1,.5-1,.2,1.1.5-1.1.2,1.1.5-1,.2,1.1.5-1.1.2,1.1.5-1.1.2,1.2.4-1.1.3,1.2.4-1.1.2,1.1.5-1.1.2,1.2.4-1.1.3,1.2.3-1.1.3,1.2.4-1.2.3,1.3.3-1,.4,1.2.2-1.1.4,1.2.2-1,.4,1.2.1-1,.5,1.1.1-.9.5h1.1l-.9.5h1.1l-.8.5,1-.1-.8.6,1.1-.2-.8.7,1-.3-.6.7.9-.3-.6.8.9-.5-.6,1,1-.6-.3.8.7-.5-.4.8.8-.6-.3.9.7-.7-.2,1,.7-.9-.1,1.1.7-.9-.1,1,.6-.9v1l.6-1v1.1l.5-1,.2,1.1.4-1.1.2,1.1.4-1.1.2,1.1.4-1.1.3,1,.2-1,.4,1,.2-1.1.4.9.1-1,.5.9v-1l.5.8v-.9l.5.6-.1-.8.7.7-.2-1,.8.8-.2-1.2.8.6-.3-1,.8.5-.3-.8.7.4-.4-.8.7.2-.4-.6.7.2-.5-.6h.2l-.1-.1,1.1-.2-.7-.6-.1.1v-.1l-.4-.3.1-.1-.2.1.5-.6-.2-.1-.8.1.4-.5-.7.3.3-.5-.6.4.3-.8-.8.6.3-1-1,.8.4-1.3-1.2.9.5-1.4-1.5.9.9-1.6-2,.7,1.3-1.4-2.1.2,1.4-1h-1.9l1.5-.9-1.9-.1,1.6-.8-1.8-.3,1.4-.5-1.5-.4,1.5-.4-1.6-.5,1.6-.4-1.5-.6,1.5-.2-1.4-.8,1.5-.1-1.4-.8h1.5l-1.2-.8,1.9.1-1.4-1.8,1.9.5-.8-1.9,1.6.9-.4-2.1,1.3,1.3.3-2,.8,1.2.2-1.5.6,1.2.4-1.4.5,1.2.5-1.4.3,1.3.6-1.3.3,1.2.5-1.3.3,1.2.5-1.2.2,1.1.6-1.2.2,1.2.6-1.2.2,1.1.5-1.2.2,1.2.5-1.3.2,1.2.5-1.3.2,1.2.5-1.3.2,1.3.6-1.4.2,1.3.5-1.4.2,1.4.5-1.5.2,1.4.5-1.5.2,1.5.5-1.5.2,1.5.5-1.6.2,1.5.5-1.5.3,1.5.5-1.6.2,1.6.5-1.6.2,1.6.5-1.6.2,1.6.5-1.6.2,1.6.5-1.7.2,1.7.6-1.7.2,1.7.5-1.7.2,1.6.5-1.6.2,1.9.7-1.9.3,2.2,1-2.1v2.4l1.5-2.1-.4,2.3,1.7-1.7-.6,1.6,1.3-1.2-.9,2.3,2.4-1.4-1.5,2.1,2.6-.6-1.9,1.6h2.8l-2.1,1.4,2.6.3-2,.7,2.2.5-1.9.5,2,.6-1.8.3,1.8.6-1.7.3,1.7.6-1.7.2,1.7.6-1.6.2,1.6.5-1.6.3,1.6.5-1.6.2,1.6.6-1.6.2,1.6.6-1.6.2,1.6.6-1.7.2,1.6.6-1.7.2,1.7.6-1.7.2,1.6.6-1.6.1,1.6.7-1.7.1,1.6.7-1.7.1,1.6.7h-1.7l1.5.8h-1.6l1.5.7h-1.6l1.4.8h-1.6l1.5.8-1.6-.1,1.4.9-1.6-.1,1.3.9-1.6-.1,1.4.9-1.6-.2,1.3,1-1.6-.2,1.3,1.1-1.6-.4,1.2,1.2-1.5-.4,1.1,1.1-1.5-.4,1.1,1.2-1.5-.5,1,1.3-1.4-.5,1,1.3-1.5-.6,1,1.3-1.4-.6.8,1.4-1.5-.8.7,1.8-1.5-1.1.5,1.9-1.1-1.1.3,1.6-.9-1,.2,1.4-.9-1,.2,1.4-.8-1.1.1,1.4-.8-1,.1,1.4-.8-1.1.1,1.4-.7-1.1v1.4l-.7-1.1.1,1.4-.7-1.1v1.3l-.7-1.1v1.4l-.7-1.1v1.4l-.6-1.1-.1,1.3-.6-1.1v1.4l-.7-1.1v1.3l-.7-1.1v1.4l-.6-1.1-.1,1.3-.6-1.1v1.4l-.7-1.1v1.3l-.6-1.1-.1,1.4-.6-1.1-.1,1.3-.6-1.1v1.3l-.7-1v1.3l-.6-1.1-.1,1.3-.6-1.1-.1,1.4-.6-1.1-.1,1.3-.5-1.1-.1,1.4-.6-1.2-.1,1.4-.6-1.1-.1,1.3-.6-1.1-.1,1.4-.6-1.2-.1,1.4-.5-1.2-.1,1.4-.6-1.1-.1,1.4-.6-1.2-.1,1.4-.6-1.2-.1,1.4-.6-1.2-.1,1.4-.6-1.2-.1,1.5-.6-1.3-.1,1.5-.5-1.3-.2,1.5-.5-1.3-.2,1.5-.5-1.3-.2,1.5-.6-1.3-.2,1.5-.5-1.3-.2,1.5-.5-1.4-.3,1.6-.5-1.5-.3,1.7-.5-1.8-.6,2-.3-1.8-.7,1.8-.1-1.7-.7,1.7-.1-1.6-.7,1.5-.1-1.6-.6,1.6-.1-1.6-.7,1.6v-1.7l-.8,1.7v-1.7l-.7,1.6v-1.7l-.8,1.6v-1.7l-.8,1.7.1-1.8-.9,1.7.2-1.8-1,1.7.1-1.2-.5,1.2.3-2.1-1,1.5Z"/>
  <path class="cls-1" d="m112.8,83.64l-3.8,32.2c-.07.67-.12,1.3-.17,1.9-.05.6-.08,1.18-.08,1.75,0,2.73.51,4.77,1.52,6.1,1.02,1.33,2.62,2,4.83,2,1.53,0,3.11-.42,4.73-1.25,1.62-.83,3.18-2.02,4.7-3.55,1.52-1.53,2.93-3.38,4.23-5.55,1.3-2.17,2.43-4.58,3.4-7.25l3.15-26.35h8.85l-6.1,50.65h-4.4c-1.03,0-1.83-.23-2.4-.7-.57-.47-.85-1.18-.85-2.15,0-.03.02-.33.05-.9.03-.57.07-1.18.12-1.85.05-.67.1-1.28.15-1.85.05-.57.08-.87.08-.9l.35-4.05c-2.7,4.3-5.72,7.56-9.05,9.77-3.33,2.22-6.77,3.33-10.3,3.33-3.77,0-6.69-1.28-8.78-3.85-2.08-2.57-3.12-6.25-3.12-11.05,0-.67.02-1.35.05-2.05.03-.7.1-1.43.2-2.2l3.8-32.2h8.85Z"/>
  <path class="cls-1" d="m156.54,132.83c-2.56-1.63-4.59-3.7-6.1-6.21-1.32-2.21-2.24-4.73-2.76-7.57-.52-2.84-.57-5.68-.14-8.54l.37-2.02c.37-2.02.94-4.04,1.7-6.05.77-2.01,1.72-3.93,2.85-5.77,1.13-1.84,2.43-3.56,3.89-5.15,1.46-1.59,3.06-2.98,4.81-4.14,1.75-1.17,3.62-2.08,5.61-2.74,1.99-.66,4.11-.99,6.35-.99,2.94,0,5.49.61,7.64,1.82,2.15,1.21,3.9,2.81,5.25,4.81,1.32,1.99,2.22,4.26,2.69,6.81.48,2.55.53,5.15.16,7.82l-.46,2.9h-37.78c-.8,3.53-1.05,6.72-.76,9.57.29,2.85,1.22,5.6,2.78,8.24,1.26,2.12,2.98,3.84,5.18,5.18,2.19,1.33,4.76,2.02,7.71,2.05,3.16.03,6.09-.57,8.79-1.79,2.7-1.23,5.18-2.9,7.45-5.02l1.7,1.33c-2.39,2.48-5.1,4.43-8.12,5.82-3.02,1.4-6.28,2.09-9.78,2.09s-6.48-.81-9.04-2.44Zm9-45.05c-2.33,1.1-4.42,2.55-6.26,4.33-1.87,1.81-3.49,3.87-4.85,6.17-1.37,2.3-2.48,4.65-3.34,7.04h35.06l.14-.6c.46-2.24.5-4.47.12-6.69-.38-2.22-1.13-4.21-2.23-5.96-1.14-1.75-2.63-3.17-4.49-4.28-1.86-1.1-4.03-1.66-6.51-1.66-2.76,0-5.31.55-7.64,1.66Z"/>
  <path class="cls-1" d="m249.24,109.87c1.07,3.19,1.11,6.26.11,9.21-1,2.95-3.1,5.67-6.32,8.15-3.21,2.48-7.56,4.65-13.04,6.5-5.65,1.9-10.79,2.84-15.41,2.81-4.62-.03-8.5-.97-11.64-2.81-3.14-1.84-5.37-4.43-6.69-7.79l11.08-3.73c.94,1.68,2.38,2.95,4.32,3.82,1.94.87,4.26,1.26,6.93,1.17,2.68-.09,5.58-.67,8.72-1.72,4.53-1.53,7.76-3.22,9.69-5.09,1.93-1.86,2.51-3.91,1.76-6.15-.51-1.51-1.67-2.4-3.47-2.66-1.8-.26-4.9.12-9.28,1.16l-9.6,2.3c-5.19,1.25-9.46,1.68-12.84,1.29-3.37-.39-6.01-1.37-7.91-2.94-1.9-1.57-3.23-3.48-3.98-5.71-1.09-3.24-1-6.3.28-9.16,1.28-2.86,3.52-5.47,6.71-7.82,3.19-2.35,7.17-4.33,11.92-5.93,4.92-1.66,9.55-2.45,13.87-2.38,4.32.07,8.04.94,11.15,2.6,3.11,1.66,5.35,4.04,6.7,7.13l-11.08,3.73c-.66-1.21-1.73-2.23-3.23-3.07-1.5-.84-3.49-1.29-5.97-1.35-2.48-.07-5.57.52-9.26,1.77-3.92,1.32-6.81,2.86-8.68,4.61-1.87,1.75-2.48,3.61-1.82,5.56.41,1.23,1.44,2.05,3.07,2.47,1.64.42,4.33.18,8.08-.71l12.37-2.95c4.96-1.17,9.01-1.59,12.15-1.24,3.14.34,5.59,1.31,7.37,2.89,1.78,1.58,3.08,3.6,3.91,6.06Z"/>
  <path class="cls-1" d="m269.07,135.52c-3.33,0-6.37-.47-9.1-1.4-2.73-.93-4.97-2.25-6.7-3.95-1.73-1.7-2.8-3.75-3.2-6.15l15.3-5.6c.53,1.8,1.4,2.95,2.6,3.45,1.2.5,2.3.75,3.3.75.73,0,1.4-.12,2-.35.6-.23,1.08-.58,1.45-1.05.37-.47.55-1.03.55-1.7,0-.8-.4-1.48-1.2-2.05-.8-.57-2.07-1.08-3.8-1.55l-3.9-1c-3.73-.93-6.53-2.53-8.4-4.8-1.87-2.27-2.8-4.93-2.8-8,0-3.93,1.03-7.32,3.1-10.15,2.07-2.83,4.9-5.02,8.5-6.55,3.6-1.53,7.73-2.3,12.4-2.3,5.93,0,10.32,1.07,13.15,3.2,2.83,2.13,4.68,4.9,5.55,8.3l-14.8,5.3c-.27-1.33-.9-2.3-1.9-2.9-1-.6-2.3-.9-3.9-.9-1,0-1.92.28-2.75.85-.83.57-1.25,1.32-1.25,2.25,0,.67.43,1.27,1.3,1.8.87.53,2.17,1.03,3.9,1.5l4,1c3.87.93,6.93,2.58,9.2,4.95,2.27,2.37,3.4,5.32,3.4,8.85,0,4.13-1.25,7.55-3.75,10.25s-5.72,4.7-9.65,6c-3.93,1.3-8.13,1.95-12.6,1.95Z"/>
  <path class="cls-1" d="m375.24,134.29v-50h-12.5v-12.5h50v12.5h-12.5v50h-25Z"/>
  <path class="cls-1" d="m414.95,134.94c-1.07-.27-1.73-.72-2-1.35-.27-.63-.3-1.58-.1-2.85l12.3-69.7c.13-1.13.57-1.95,1.3-2.45.73-.5,1.5-.75,2.3-.75.73,0,1.37.25,1.9.75.53.5.7,1.32.5,2.45l-12.8,72.2c-.33.67-.73,1.18-1.2,1.55-.47.37-1.2.42-2.2.15Zm30.5.1c-1.27,0-2.05-.28-2.35-.85-.3-.57-.38-1.18-.25-1.85l4.6-25.1c.2-1.07.37-2.25.5-3.55.13-1.3.07-2.43-.2-3.4-.27-.97-.9-1.45-1.9-1.45-1.2,0-2.67.75-4.4,2.25-1.73,1.5-3.6,3.52-5.6,6.05-2,2.53-4.05,5.32-6.15,8.35-2.1,3.03-4.12,6.08-6.05,9.15-1.93,3.07-3.7,5.93-5.3,8.6l-1.1-9.8c1.4-2.07,2.95-4.43,4.65-7.1,1.7-2.67,3.53-5.37,5.5-8.1,1.97-2.73,4.02-5.25,6.15-7.55,2.13-2.3,4.3-4.17,6.5-5.6,2.2-1.43,4.43-2.15,6.7-2.15s3.97.72,5.1,2.15c1.13,1.43,1.82,3.25,2.05,5.45.23,2.2.12,4.43-.35,6.7l-4.7,25.1c-.07.27-.27.78-.6,1.55-.33.77-1.27,1.15-2.8,1.15Z"/>
  <path class="cls-1" d="m483.72,135.27c-7.52,0-13.62-2.37-18.29-7.1-4.67-4.74-7.01-11.04-7.01-18.92v-1.46c0-5.27,1.02-9.99,3.05-14.14,2.03-4.15,4.89-7.38,8.57-9.69,3.68-2.31,7.78-3.47,12.3-3.47,7.19,0,12.75,2.29,16.67,6.88,3.92,4.59,5.88,11.08,5.88,19.48v4.79h-34.52c.36,4.36,1.81,7.81,4.37,10.35,2.56,2.54,5.77,3.81,9.64,3.81,5.44,0,9.86-2.2,13.28-6.59l6.4,6.1c-2.12,3.16-4.94,5.61-8.47,7.35-3.53,1.74-7.5,2.61-11.89,2.61Zm-1.42-45.26c-3.26,0-5.88,1.14-7.89,3.42-2,2.28-3.28,5.45-3.83,9.52h22.61v-.88c-.26-3.97-1.32-6.97-3.17-9.01-1.86-2.03-4.43-3.05-7.71-3.05Z"/>
  <path class="cls-1" d="m605.91,131.29c-3.9,1.4-11.6,3.7-20.7,3.7-10.2,0-18.6-2.6-25.2-8.9-5.8-5.6-9.4-14.6-9.4-25.1.1-20.1,13.9-34.8,36.5-34.8,7.8,0,13.9,1.7,16.8,3.1l-2.1,7.1c-3.6-1.6-8.1-2.9-14.9-2.9-16.4,0-27.1,10.2-27.1,27.1s10.3,27.2,26,27.2c5.7,0,9.6-.8,11.6-1.8v-20.1h-13.7v-7h22.2v32.4Z"/>
  <path class="cls-1" d="m619.37,108.79v-2.73h-5.46v-6.01h1.09v4.92h5.46v2.73h7.1v-1.64h-2.19v-1.09h3.28v3.83h-9.29Zm8.2,19.12v-14.75h5.46v-4.37h-1.64v2.73h-5.46v2.73h-6.56v-2.73h-4.37v7.1h4.37v-1.64h-2.19v-1.09h3.28v3.83h-6.56v-9.29h6.56v2.73h4.37v-2.73h5.46v-2.73h3.83v6.56h-5.46v12.57h2.19v1.09h-3.28Zm-8.2,2.19v-2.19h-2.73v-2.73h-2.73v-3.83h8.2v-5.46h3.83v9.29h-2.73v1.64h2.19v1.09h-3.28v-3.83h2.73v-7.1h-1.64v5.46h-8.2v1.64h2.73v2.73h2.73v3.28h-1.09Zm-4.92-21.31v-1.09h2.73v1.09h-2.73Zm15.85-2.73v-2.73h-2.73v-2.73h-7.1v2.73h-3.83v-6.56h2.73v-2.19h1.09v3.28h-2.73v4.37h1.64v-2.73h9.29v2.73h2.73v2.73h1.64v-2.73h8.2v-2.19h1.09v3.28h-8.2v2.73h-3.83Zm-8.2-8.74v-5.46h1.09v5.46h-1.09Zm0,8.2v-3.28h3.28v1.09h-2.19v2.19h-1.09Zm13.66,30.6v-2.73h-13.66v-3.83h10.93v-4.37h-2.73v-3.28h1.09v2.19h2.73v6.56h-10.93v1.64h13.66v2.73h15.85v1.09h-16.94Zm-10.93-38.8v-3.28h3.83v3.28h-1.09v-2.19h-1.64v2.19h-1.09Zm2.73-5.46v-3.28h3.83v3.28h-1.09v-2.19h-1.64v2.19h-1.09Zm3.28,8.74v-1.09h2.19v-1.64h-2.73v-3.83h3.28v1.09h-2.19v1.64h2.73v3.83h-3.28Zm0,16.39v-1.09h2.73v1.09h-2.73Zm2.73,5.46v-1.09h2.19v-1.64h-4.92v-1.09h6.01v3.83h-3.28Zm-2.73,13.66v-1.09h2.73v1.09h-2.73Zm13.11-30.05v-10.93h-1.64v2.73h-2.73v2.73h-3.83v-6.56h2.73v-2.73h2.73v-1.64h-7.1v1.64h2.19v1.09h-3.28v-3.83h9.29v3.83h-2.73v2.73h-2.73v4.37h1.64v-2.73h2.73v-2.73h3.83v10.93h1.64v-2.19h1.09v3.28h-3.83Zm-2.73,27.32v-5.46h-4.37v1.64h2.19v1.09h-3.28v-3.83h6.56v5.46h1.64v-2.19h1.09v3.28h-3.83Zm5.46-3.28v-2.19h-2.73v-2.73h-5.46v-3.83h3.28v1.09h-2.19v1.64h5.46v2.73h2.73v3.28h-1.09Zm0-32.24v-5.46h-2.73v-3.83h6.56v2.73h1.64v-2.19h1.09v3.28h-3.83v-2.73h-4.37v1.64h2.73v5.46h1.64v-2.73h3.83v2.73h1.64v-2.73h2.73v-1.64h-2.19v-1.09h3.28v3.83h-2.73v2.73h-3.83v-2.73h-1.64v2.73h-3.83Zm5.46,35.52v-3.83h8.2v-4.37h-5.46v-2.73h-2.73v-2.73h-5.46v-6.56h3.83v2.73h1.64v-4.37h-7.1v9.84h2.73v2.73h1.64v-2.19h1.09v3.28h-3.83v-2.73h-2.73v-12.02h9.29v6.56h-3.83v-2.73h-1.64v4.37h5.46v2.73h2.73v2.73h5.46v6.56h-8.2v1.64h2.19v1.09h-3.28Zm-7.65-24.59v-1.09h2.73v1.09h-2.73Zm2.73,24.59v-1.09h2.73v1.09h-2.73Zm4.92-27.32v-2.73h-2.73v-3.83h9.29v3.83h-3.28v-1.09h2.19v-1.64h-7.1v1.64h2.73v2.73h2.19v1.09h-3.28Zm-2.73,2.73v-3.28h1.09v2.19h7.1v-2.19h1.09v3.28h-9.29Zm0,21.31v-2.73h1.09v2.73h-1.09Zm2.73-2.19v-3.28h1.09v2.19h4.92v1.09h-6.01Zm2.73-14.21v-2.73h1.09v2.73h-1.09Zm0,5.46v-2.73h1.09v2.73h-1.09Zm2.73-2.19v-6.56h2.73v-2.73h6.01v1.09h-4.92v2.73h-2.73v4.37h7.1v-1.64h-4.92v-1.09h6.01v3.83h-9.29Zm0,4.92v-3.28h3.83v3.28h-1.09v-2.19h-1.64v2.19h-1.09Zm.55-24.04v-1.09h2.19v-2.19h1.09v3.28h-3.28Zm2.19,8.2v-3.28h1.09v2.19h4.92v1.09h-6.01Zm2.73-3.28v-2.73h1.09v2.73h-1.09Zm0,21.86v-6.01h3.28v1.09h-2.19v4.92h-1.09Zm.55-13.11v-1.09h2.73v1.09h-2.73Z"/>
  <path class="cls-1" d="m696.57,138.35c-5.01,0-9.37-.99-13.08-2.97-3.71-1.98-6.57-4.8-8.61-8.48-2.03-3.68-3.05-8.05-3.05-13.12s1.03-9.91,3.09-13.87c2.06-3.95,4.97-7.05,8.73-9.27,3.76-2.23,8.15-3.34,13.16-3.34,5.35,0,9.98,1.07,13.91,3.22,3.93,2.15,6.98,5.14,9.15,8.98,2.17,3.84,3.26,8.33,3.26,13.45s-1.1,9.75-3.3,13.54c-2.2,3.79-5.28,6.71-9.23,8.77-3.96,2.06-8.64,3.09-14.04,3.09Zm1.17-17.21c2.17,0,3.91-.84,5.22-2.51,1.31-1.67,1.96-3.9,1.96-6.68s-.66-5.01-1.96-6.68c-1.31-1.67-3.05-2.51-5.22-2.51s-4,.84-5.31,2.51c-1.31,1.67-1.96,3.9-1.96,6.68s.65,5.01,1.96,6.68c1.31,1.67,3.08,2.51,5.31,2.51Z"/>
  <path class="cls-1" d="m714.32,167.13c-.48,0-1.39-.2-2.73-.59-1.35-.4-2.59-.91-3.75-1.55-1.15-.64-1.72-1.27-1.72-1.9,0-.16.16-.24.48-.24.48.16.83.24,1.07.24.08,0,.28-.08.59-.24-.32-.48-.48-.95-.48-1.43,0-.4.12-.64.36-.71-.16-.48-.36-.93-.59-1.37-.24-.44-.47-.89-.71-1.37-.16-.32-.51-.81-1.07-1.49-.55-.67-.83-1.17-.83-1.49,0-.24.08-.59.24-1.07,1.66,2.3,3.09,4.12,4.28,5.47,1.19,1.35,2.61,2.32,4.28,2.91s4,.89,7.01.89c3.49,0,6.76-1.27,9.81-3.8,3.05-2.54,5.82-5.81,8.32-9.81,2.5-4,4.71-8.3,6.66-12.9,1.94-4.6,3.61-9.02,4.99-13.26,1.39-4.24,2.44-7.75,3.15-10.52-.95,1.27-2.34,3.09-4.16,5.47-1.82,2.38-3.85,4.78-6.06,7.19-2.22,2.42-4.42,4.48-6.6,6.18-2.18,1.71-4.1,2.56-5.77,2.56-1.27,0-2.08-.49-2.44-1.49-.36-.99-.54-2-.54-3.03,0-3.64.71-7.63,2.14-11.95,1.43-4.32,3.29-8.46,5.59-12.42,2.3-3.96,4.79-7.17,7.49-9.63,3.01-2.62,6.38-3.92,10.11-3.92,1.58,0,3.15.18,4.7.54,1.55.36,3.07.85,4.58,1.49,1.35-.95,2.81-1.78,4.4-2.5,1.58-.71,3.21-1.07,4.87-1.07.4,0,.71.24.95.71v.36c-.08.24-.2.34-.36.3-.16-.04-.32-.06-.48-.06-1.51,0-2.91.83-4.22,2.5-1.31,1.66-2.48,3.71-3.51,6.12-1.03,2.42-1.9,4.74-2.61,6.95-.71,2.22-1.23,3.88-1.55,4.99-1.74,6.26-3.9,12.62-6.48,19.08-2.58,6.46-5.93,12.3-10.05,17.54-.95,1.19-1.94,2.36-2.97,3.51-1.03,1.15-2.1,2.28-3.21,3.39-3.09,3.17-6.58,5.86-10.46,8.08-3.88,2.22-8.12,3.33-12.72,3.33Zm21.99-37.92c.87,0,1.96-.57,3.27-1.72,1.31-1.15,2.69-2.54,4.16-4.16,1.47-1.62,2.77-3.19,3.92-4.7,1.15-1.5,1.96-2.62,2.44-3.33.95-1.43,2.04-3.21,3.27-5.35,1.23-2.14,2.3-4.36,3.21-6.66.91-2.3,1.37-4.24,1.37-5.83,0-2.46-1.23-3.69-3.69-3.69-1.43,0-2.93.64-4.52,1.9-1.59,1.27-2.85,2.42-3.8,3.45-1.03,1.27-2.2,3.09-3.51,5.47-1.31,2.38-2.52,4.95-3.63,7.73-1.11,2.77-2.04,5.43-2.79,7.96-.75,2.54-1.13,4.64-1.13,6.3,0,.48.1,1.03.3,1.66.2.64.57.95,1.13.95Z"/>
  <path class="cls-1" d="m775.89,134.29V50.09h12.2v84.2h-12.2Z"/>
  <path class="cls-1" d="m856.04,123.23c-4.07,2.5-8.57,4.54-13.5,6.11-4.93,1.57-11.04,2.36-18.33,2.36-5.79,0-11.02-.77-15.7-2.3-4.68-1.54-8.41-3.75-11.2-6.64-2.79-2.89-4.18-6.38-4.18-10.45,0-3.43.96-6.45,2.89-9.06,1.93-2.61,4.54-4.8,7.82-6.59,3.29-1.78,6.97-3.12,11.04-4.02,4.07-.89,8.25-1.34,12.54-1.34,8.15,0,14.7,1.09,19.67,3.27,4.97,2.18,7.45,5.27,7.45,9.27,0,2.79-1.13,5.04-3.38,6.75s-5.31,2.98-9.16,3.8c-3.86.82-8.22,1.23-13.08,1.23-5.72,0-11.25-.5-16.61-1.5-5.36-1-10.79-2.39-16.29-4.18-.14.79-.21,1.57-.21,2.36,0,3.36,1.23,6.31,3.7,8.84,2.46,2.54,5.84,4.5,10.13,5.89,4.29,1.39,9.15,2.13,14.58,2.2,6.72.07,12.52-.66,17.42-2.2,4.89-1.54,9.31-3.52,13.24-5.95l1.18,2.14Zm-28.62-29.47c-4.64,0-9.09.55-13.34,1.66-4.25,1.11-7.95,2.7-11.09,4.77-3.15,2.07-5.29,4.61-6.43,7.61,10.65,3.5,21.43,5.25,32.37,5.25,4.29,0,8.16-.3,11.63-.91,3.47-.61,6.22-1.59,8.25-2.95,2.04-1.36,3.06-3.14,3.06-5.36,0-3.22-2.18-5.7-6.54-7.45-4.36-1.75-10.32-2.63-17.9-2.63Z"/>
  <path class="cls-1" d="m877.27,107.54c-2.8,0-4.87-.52-6.2-1.55-1.33-1.03-2-2.38-2-4.05s.6-2.88,1.8-3.85c1.2-.97,3.2-1.82,6-2.55,2.73-.73,5.87-1.23,9.4-1.5,3.53-.27,6.73-.4,9.6-.4,3.47,0,5.93.5,7.4,1.5,1.47,1,2.2,2.33,2.2,4,0,1.87-.62,3.32-1.85,4.35-1.23,1.03-3.02,1.82-5.35,2.35-1.87.33-4.08.63-6.65.9-2.57.27-5.13.47-7.7.6-2.57.13-4.78.2-6.65.2Z"/>
  <path class="cls-1" d="m959,91.49c-.4,0-.98-.07-1.75-.2-.77-.13-1.45-.37-2.05-.7-.6-.33-.9-.77-.9-1.3l.8-.8c2.27-.53,3.67-.95,4.2-1.25.53-.3.8-.98.8-2.05,0-.27-.03-.93-.1-2-.07-1.07-.1-2.03-.1-2.9-2.07.93-3.93,1.4-5.6,1.4-.6,0-1.45-.12-2.55-.35-1.1-.23-1.92-.35-2.45-.35-1.53,0-3.43.93-5.7,2.8-2.33,1.93-4.83,2.9-7.5,2.9-1.33,0-2.83-.38-4.5-1.15-1.67-.77-3.08-1.78-4.25-3.05-1.17-1.27-1.75-2.63-1.75-4.1,0-.27.05-.65.15-1.15s.22-1.18.35-2.05c-1.87.2-2.9.87-3.1,2-.07.73-.13,1.48-.2,2.25-.07.77-.13,1.52-.2,2.25,0,.33-.17.67-.5,1-.4-.4-.88-1.33-1.45-2.8-.57-1.47-1.07-2.97-1.5-4.5-.43-1.53-.65-2.6-.65-3.2,0-2.2,1.4-3.3,4.2-3.3.87,0,1.97.08,3.3.25,1.33.17,2.9.42,4.7.75,1.8.33,3.38.6,4.75.8,1.37.2,2.48.3,3.35.3,1.2,0,2.7-.07,4.5-.2,1.8-.13,3.87-.33,6.2-.6,2.33-.27,4.37-.45,6.1-.55,1.73-.1,3.17-.15,4.3-.15,2.46,0,3.7.67,3.7,2,0,.53-.13,1.33-.4,2.4-.27,1.07-.4,1.87-.4,2.4,0,.73.02,1.95.05,3.65.03,1.7.07,3.38.1,5.05.03,1.67.05,2.9.05,3.7,0,1.4-.33,2.23-1,2.5-.4.2-1.4.3-3,.3Zm-16.8,43.8c-.67,0-1.62-.07-2.85-.2-1.23-.13-2.47-.25-3.7-.35-1.23-.1-2.18-.15-2.85-.15-.73,0-1.88.05-3.45.15-1.57.1-3.15.2-4.75.3-1.6.1-2.77.15-3.5.15-.8,0-1.2-.57-1.2-1.7,0-5.47.05-11.07.15-16.8.1-5.73.35-11.6.75-17.6.2-3.07.63-4.6,1.3-4.6h.2c.33.6.57,1.3.7,2.1,1.6-2.6,4.1-3.9,7.5-3.9,1.67,0,3.37.37,5.1,1.1,1.73.73,3.2,1.77,4.4,3.1,1.2,1.33,1.8,2.93,1.8,4.8,0,2-1.47,4.17-4.4,6.5-3,2.27-4.5,4.73-4.5,7.4,0,.53.23,1.35.7,2.45.47,1.1.92,2.23,1.35,3.4.43,1.17.65,2.08.65,2.75,0,2.2-.8,4.17-2.4,5.9l6.1.1c1.27,0,1.97-1.17,2.1-3.5-.07.33-.1-1.8-.1-6.4,0-.33.05-1.13.15-2.4.1-1.27.22-3.03.35-5.3-.93-.93-1.4-1.9-1.4-2.9,0-1.73,1.03-2.6,3.1-2.6.8,0,2.05.17,3.75.5,1.7.33,3.42.68,5.15,1.05,1.73.37,3.03.55,3.9.55s1.3-.23,1.3-.7c0-.13-.03-.4-.1-.8-.07-.4-.1-.7-.1-.9-5.87-1.87-8.8-3.87-8.8-6,0-1.47.7-2.53,2.1-3.2l-5.9.3c-1.67,0-2.73-.53-3.2-1.6-.27-.6-.4-1.9-.4-3.9,0-3.33.8-5,2.4-5,.33,0,.9.08,1.7.25.8.17,1.57.37,2.3.6.73.23,1.1.52,1.1.85-.07.07-.32.22-.75.45-.43.23-1.05.62-1.85,1.15-1.07.67-1.6,1.37-1.6,2.1,0,1.33.57,2.03,1.7,2.1-.27-.07-.1-.12.5-.15.6-.03,1.6-.05,3-.05,5.27,0,8.33.3,9.2.9h.4v.2c1,1.4,1.53,3.6,1.6,6.6.07.07.1,2.43.1,7.1,0,.93-.3,1.67-.9,2.2-.4.27-1.87.57-4.4.9-2.53.33-6.23.63-11.1.9.27,6.13.47,10.7.6,13.7.13,3,.2,4.47.2,4.4v-.1.1c-.07,2.47-1.13,3.7-3.2,3.7Z"/>
  <path class="cls-1" d="m986.77,134.34c-4.3,0-7.98-.88-11.02-2.64-3.04-1.76-5.37-4.2-6.97-7.32-1.6-3.12-2.4-6.65-2.4-10.59s.89-7.49,2.68-10.51c1.78-3.02,4.21-5.38,7.28-7.08,3.07-1.7,6.55-2.56,10.43-2.56s7.36.84,10.43,2.52c3.07,1.68,5.5,4.03,7.28,7.05,1.78,3.02,2.68,6.55,2.68,10.59s-.81,7.6-2.44,10.67c-1.63,3.07-3.95,5.48-6.97,7.24-3.02,1.76-6.68,2.64-10.98,2.64Zm0-4.25c1.31,0,2.4-.56,3.27-1.69.87-1.13,1.52-2.87,1.97-5.23.45-2.36.67-5.43.67-9.21s-.22-6.84-.67-9.17c-.45-2.33-1.1-4.07-1.97-5.2-.87-1.13-1.96-1.69-3.27-1.69s-2.39.56-3.23,1.69c-.84,1.13-1.48,2.86-1.93,5.2-.45,2.34-.67,5.39-.67,9.17s.22,6.85.67,9.21,1.09,4.11,1.93,5.23c.84,1.13,1.91,1.69,3.23,1.69Z"/>
  <path class="cls-1" d="m1014.87,132.97c-.74,0-1.28-.17-1.62-.52-.34-.34-.59-.83-.74-1.47-.25-.83-.37-1.72-.37-2.65v-2.87c0-1.57.05-2.94.15-4.09.1-1.15.15-2.42.15-3.8,0-.49-.01-1.02-.04-1.58-.03-.56-.06-1.17-.11-1.81-.2-2.41-.47-4.94-.81-7.59-.34-2.65-.52-5.06-.52-7.22v-2.87c.29-.69.58-1.11.85-1.25.27-.15.65-.22,1.14-.22,1.18,0,2.01.45,2.51,1.36.49.91.82,1.97.99,3.17.17,1.2.28,2.25.33,3.13.05.34.13,1.08.26,2.21.12,1.13.26,2.4.41,3.8.15,1.4.28,2.74.41,4.02.12,1.28.18,2.26.18,2.95.79-1.62,1.72-3.3,2.8-5.05,1.08-1.74,2.17-3.38,3.28-4.9,1.11-1.52,2.1-2.75,2.98-3.69,1.28-1.42,2.79-2.54,4.53-3.35,1.74-.81,3.48-1.22,5.2-1.22,2.01,0,3.78.57,5.31,1.7,1.52,1.13,2.84,2.6,3.94,4.42,1.11,1.82,2.03,3.77,2.76,5.86.74,2.09,1.33,4.12,1.77,6.08.64,2.61,1.12,4.89,1.44,6.85.32,1.97.6,4.2.85,6.71,0,1.08-.22,1.94-.66,2.58-.44.64-.98.96-1.62.96-.93,0-1.6-.21-1.99-.63-.39-.42-.66-1.09-.81-2.03-.34-1.87-.68-3.98-1-6.34-.32-2.36-.75-4.75-1.29-7.19-.54-2.43-1.33-4.65-2.36-6.67-.39-.93-.88-1.89-1.47-2.87-.59-.98-1.3-1.82-2.14-2.51-.84-.69-1.87-1.03-3.1-1.03-1.62,0-3.26.71-4.9,2.14-1.65,1.43-3.21,3.27-4.68,5.53-1.47,2.26-2.83,4.68-4.05,7.26-1.23,2.58-2.26,5.02-3.1,7.33-.25.79-.55,1.66-.92,2.62-.37.96-.75,1.86-1.14,2.69-.34.69-.73,1.2-1.14,1.55-.42.34-.97.52-1.66.52Z"/>
  <path class="cls-1" d="m1048.5,94.99v-8.2h32.4v8.2h-32.4Zm11.7,39.3v-67.4h9v67.4h-9Z"/>
</svg>